<svg xmlns="http://www.w3.org/2000/svg" viewBox="0 0 780 772" width="780" height="772" font-family="'Menlo','Monaco','Consolas','Courier New',monospace">
  <!-- Window chrome -->
  <rect width="780" height="772" rx="10" fill="#1e1e2e"/>
  <rect width="780" height="38" rx="10" fill="#313244"/>
  <rect y="28" width="780" height="10" fill="#313244"/>
  <circle cx="20" cy="19" r="6" fill="#f38ba8"/>
  <circle cx="40" cy="19" r="6" fill="#f9e2af"/>
  <circle cx="60" cy="19" r="6" fill="#a6e3a1"/>
  <text x="390" y="24" text-anchor="middle" fill="#cdd6f4" font-size="13" opacity="0.7">Claude Code — your-project · Architect</text>

  <!-- Status bar -->
  <rect x="16" y="52" width="748" height="28" rx="4" fill="#1e3a1e" stroke="#a6e3a1" stroke-width="1" opacity="0.9"/>
  <text x="28" y="70" fill="#a6e3a1" font-size="12">✓</text>
  <text x="44" y="70" fill="#a6e3a1" font-size="12">CLAUDE.md loaded — conventions active · role: architect</text>

  <!-- Version line -->
  <text x="28" y="104" fill="#6c7086" font-size="12">Claude Code v1.x  |  Model: claude-sonnet-4-6  |  Context: your-project/</text>

  <!-- Prompt box -->
  <text x="28" y="132" fill="#89b4fa" font-size="13">╭─────────────────────────────────────────╮</text>
  <text x="28" y="150" fill="#89b4fa" font-size="13">│  How can I help with your-project today? │</text>
  <text x="28" y="168" fill="#89b4fa" font-size="13">╰─────────────────────────────────────────╯</text>

  <!-- Command input -->
  <text x="28" y="200" fill="#cdd6f4" font-size="13">&gt; /hitl:architect-</text>
  <rect x="152" y="187" width="2" height="16" fill="#cdd6f4" opacity="0.8"/>

  <!-- Dropdown outer box -->
  <rect x="16" y="212" width="748" height="520" rx="6" fill="#181825" stroke="#45475a" stroke-width="1"/>
  <rect x="16" y="212" width="748" height="28" rx="6" fill="#313244"/>
  <rect x="16" y="228" width="748" height="12" fill="#313244"/>
  <text x="28" y="230" fill="#6c7086" font-size="11">AVAILABLE COMMANDS  (12)  —  own namespace + qa + ops when covering those roles</text>

  <!-- Section 1: ARCHITECT COMMANDS (5) -->
  <rect x="17" y="240" width="746" height="20" fill="#1a2744"/>
  <text x="28" y="254" fill="#89b4fa" font-size="10" font-weight="bold" letter-spacing="1">ARCHITECT COMMANDS</text>
  <text x="672" y="254" fill="#45475a" font-size="10">6 commands</text>

  <!-- Row 1: design-system (highlighted) -->
  <rect x="17" y="260" width="746" height="36" fill="#313244" rx="0"/>
  <text x="28" y="281" fill="#cba6f7" font-size="13" font-weight="bold">/hitl:architect-design-system</text>
  <text x="310" y="281" fill="#6c7086" font-size="12">  ·</text>
  <text x="323" y="281" fill="#a6adc8" font-size="12">Design new system from PRD — domains, manifest, HLDs, ADRs, LLDs</text>

  <!-- Row 2: design-feature -->
  <rect x="17" y="296" width="746" height="36" fill="transparent"/>
  <text x="28" y="317" fill="#cba6f7" font-size="13">/hitl:architect-design-feature</text>
  <text x="310" y="317" fill="#6c7086" font-size="12">  ·</text>
  <text x="323" y="317" fill="#a6adc8" font-size="12">Design phase: impact analysis, HLD, LLD, slice decomp, decision packets</text>

  <!-- Row 3: review-design -->
  <rect x="17" y="332" width="746" height="36" fill="transparent"/>
  <text x="28" y="353" fill="#cba6f7" font-size="13">/hitl:architect-review-design</text>
  <text x="310" y="353" fill="#6c7086" font-size="12">  ·</text>
  <text x="323" y="353" fill="#a6adc8" font-size="12">Review HLD, LLD, ADR — approve design before implementation starts</text>

  <!-- Row 4: review-code -->
  <rect x="17" y="368" width="746" height="36" fill="transparent"/>
  <text x="28" y="389" fill="#cba6f7" font-size="13">/hitl:architect-review-code</text>
  <text x="310" y="389" fill="#6c7086" font-size="12">  ·</text>
  <text x="323" y="389" fill="#a6adc8" font-size="12">Architect Code Review — create PR with AI summary + judgment checklist</text>

  <!-- Row 5: verify-traceability -->
  <rect x="17" y="404" width="746" height="36" fill="transparent"/>
  <text x="28" y="425" fill="#cba6f7" font-size="13">/hitl:architect-verify-traceability</text>
  <text x="310" y="425" fill="#6c7086" font-size="12">  ·</text>
  <text x="323" y="425" fill="#a6adc8" font-size="12">Integration verify — issue → design → code → tests → brief chain</text>

  <!-- Row 6: review-existing -->
  <rect x="17" y="440" width="746" height="36" fill="transparent"/>
  <text x="28" y="461" fill="#cba6f7" font-size="13">/hitl:architect-review-existing</text>
  <text x="310" y="461" fill="#6c7086" font-size="12">  ·</text>
  <text x="323" y="461" fill="#a6adc8" font-size="12">Reconstruct existing architecture — deliberate decisions vs accidents</text>

  <!-- Section 2: WHEN COVERING QA (4) -->
  <rect x="17" y="476" width="746" height="20" fill="#2e2a1a"/>
  <text x="28" y="490" fill="#f9e2af" font-size="10" font-weight="bold" letter-spacing="1">WHEN COVERING QA</text>
  <text x="672" y="490" fill="#45475a" font-size="10">4 commands</text>

  <!-- Row 6: qa-plan-tests -->
  <rect x="17" y="496" width="746" height="36" fill="transparent"/>
  <text x="28" y="517" fill="#cba6f7" font-size="13">/hitl:qa-plan-tests</text>
  <text x="310" y="517" fill="#6c7086" font-size="12">  ·</text>
  <text x="323" y="517" fill="#a6adc8" font-size="12">Design time — test scenarios from incident history before TDD starts</text>

  <!-- Row 7: qa-review-tests -->
  <rect x="17" y="532" width="746" height="36" fill="transparent"/>
  <text x="28" y="553" fill="#cba6f7" font-size="13">/hitl:qa-review-tests</text>
  <text x="310" y="553" fill="#6c7086" font-size="12">  ·</text>
  <text x="323" y="553" fill="#a6adc8" font-size="12">Formal test coverage review — ACs, LLD edge cases, incident regressions</text>

  <!-- Row 8: qa-verify-quality -->
  <rect x="17" y="568" width="746" height="36" fill="transparent"/>
  <text x="28" y="589" fill="#cba6f7" font-size="13">/hitl:qa-verify-quality</text>
  <text x="310" y="589" fill="#6c7086" font-size="12">  ·</text>
  <text x="323" y="589" fill="#a6adc8" font-size="12">Post-handoff independent quality verification — block or approve promotion</text>

  <!-- Row 9: qa-report-defect -->
  <rect x="17" y="604" width="746" height="36" fill="transparent"/>
  <text x="28" y="625" fill="#cba6f7" font-size="13">/hitl:qa-report-defect</text>
  <text x="310" y="625" fill="#6c7086" font-size="12">  ·</text>
  <text x="323" y="625" fill="#a6adc8" font-size="12">File structured defect when blocking — AC reference, repro steps, severity</text>

  <!-- Section 3: WHEN COVERING OPS (2) -->
  <rect x="17" y="640" width="746" height="20" fill="#2e1a1a"/>
  <text x="28" y="654" fill="#f38ba8" font-size="10" font-weight="bold" letter-spacing="1">WHEN COVERING OPS</text>
  <text x="672" y="654" fill="#45475a" font-size="10">2 commands</text>

  <!-- Row 10: ops-review-release -->
  <rect x="17" y="660" width="746" height="36" fill="transparent"/>
  <text x="28" y="681" fill="#cba6f7" font-size="13">/hitl:ops-review-release</text>
  <text x="310" y="681" fill="#6c7086" font-size="12">  ·</text>
  <text x="323" y="681" fill="#a6adc8" font-size="12">Assess rollout plan, canary criteria, observability, and rollback before release</text>

  <!-- Row 11: ops-monitor-canary -->
  <rect x="17" y="696" width="746" height="36" fill="transparent"/>
  <text x="28" y="717" fill="#cba6f7" font-size="13">/hitl:ops-monitor-canary</text>
  <text x="310" y="717" fill="#6c7086" font-size="12">  ·</text>
  <text x="323" y="717" fill="#a6adc8" font-size="12">Read dashboards for active canary — produce go/no-go recommendation</text>

  <!-- Separator + nav hint -->
  <line x1="16" y1="734" x2="764" y2="734" stroke="#45475a" stroke-width="1" opacity="0.5"/>
  <text x="28" y="748" fill="#6c7086" font-size="11">↑↓ navigate   ↵ select   esc dismiss   —   type to filter</text>
  <text x="600" y="748" fill="#45475a" font-size="11">from .claude/commands/</text>

  <!-- Footer -->
  <rect x="0" y="754" width="780" height="18" fill="#313244" opacity="0.5"/>
  <text x="16" y="767" fill="#6c7086" font-size="11">CLAUDE.md  ·  system-manifest.yaml  ·  6 architect + 4 qa + 2 ops commands  —  also use /hitl:qa- and /hitl:ops- commands</text>
</svg>
