<svg xmlns="http://www.w3.org/2000/svg" width="512" height="512" viewBox="0 0 512 512"><rect width="512" height="512" fill="#211F29"/><g transform="translate(256,128)">
      <g fill="none" stroke="#F5F2EA" stroke-width="5" stroke-linejoin="round" stroke-linecap="round">
        <polygon points="0,-80 38,-61 0,-42 -38,-61"/>
        <line x1="-38" y1="-61" x2="-38" y2="-25"/>
        <line x1="38"  y1="-61" x2="38"  y2="-25"/>
        <line x1="0"   y1="-42" x2="0"   y2="-6"/>
        <polyline points="-38,-25 0,-6 38,-25"/>
      </g>
      <polygon points="0,-59 15,-51 0,-43 -15,-51" fill="#2FBF94"/>
      <polygon points="-15,-51 0,-43 0,-28 -15,-36" fill="#1E8E6E"/>
      <polygon points="15,-51 0,-43 0,-28 15,-36" fill="#1E8E6E"/>
      <text x="0" y="-12" text-anchor="middle" font-family="Menlo, Consolas, monospace"
            font-weight="bold" font-size="14" fill="#3FBF94">&lt;/&gt;</text>
    </g><line x1="256" y1="172" x2="256" y2="140" stroke="#2FBF94" stroke-width="7" stroke-linecap="round"/><polygon points="12,0 -8,10 -8,-10" fill="#2FBF94" transform="translate(256,134) rotate(-90)"/><path transform="translate(280,154) scale(1.15)" fill="#2FBF94" d="M0,-11 L3,-3 L11,0 L3,3 L0,11 L-3,3 L-11,0 L-3,-3 Z"/><g transform="translate(256,228)">
      <g transform="translate(10,-8) scale(1.02)" opacity="0.5">
        <path d="M -30 -38 L 14 -38 L 30 -22 L 30 38 L -30 38 Z" fill="#FAF7F0" stroke="#F5F2EA" stroke-width="4" stroke-linejoin="round"/>
      </g>
      <g transform="scale(1.06)">
        <path d="M -30 -38 L 14 -38 L 30 -22 L 30 38 L -30 38 Z" fill="#FAF7F0" stroke="#F5F2EA" stroke-width="5" stroke-linejoin="round"/>
        <path d="M 14 -38 L 14 -22 L 30 -22 Z" fill="#1E8E6E"/>
        <rect x="-18" y="-10" width="36" height="6" rx="3" fill="#1E8E6E"/>
        <rect x="-18" y="5"  width="36" height="6" rx="3" fill="#1E8E6E"/>
        <rect x="-18" y="20" width="23" height="6" rx="3" fill="#1E8E6E" opacity="0.55"/>
      </g>
    </g><line x1="81" y1="303" x2="226" y2="281" stroke="#2FBF94" stroke-width="3.5" stroke-linecap="round" opacity="0.9"/><polygon points="8,0 -6,6 -6,-6" fill="#2FBF94" transform="translate(226,281) rotate(-9)"/><g transform="translate(66,392) scale(1.1)" fill="#E0764F"><circle cx="0" cy="-14" r="13"/><rect x="-20" y="4" width="40" height="24" rx="12"/></g><polygon points="72.9,358.2 74.5,358.1 76.0,357.6 77.5,356.8 79.0,355.8 80.4,354.6 81.8,353.3 83.0,351.7 84.1,350.1 85.1,348.3 86.0,346.4 86.7,344.4 87.3,342.4 87.7,340.4 87.9,338.4 88.0,336.4 87.9,334.4 87.6,332.5 87.2,330.7 86.6,329.0 85.8,327.5 84.8,326.2 83.6,325.2 83.6,325.2 83.4,326.7 83.2,328.2 83.1,329.6 82.9,331.1 82.7,332.6 82.4,334.2 82.0,335.8 81.6,337.4 81.2,339.1 80.7,340.7 80.2,342.3 79.7,344.0 79.1,345.6 78.5,347.2 77.8,348.7 77.2,350.2 76.5,351.6 75.8,353.0 75.1,354.3 74.3,355.6 73.6,356.8 72.9,358.2" fill="#2FBF94"/><polygon points="7,0 -5,5 -5,-5" fill="#2FBF94" transform="translate(83.6,325.2) rotate(61)"/><polygon points="73.1,321.8 71.5,321.9 70.0,322.4 68.5,323.2 67.0,324.2 65.6,325.4 64.2,326.7 63.0,328.3 61.9,329.9 60.9,331.7 60.0,333.6 59.3,335.6 58.7,337.6 58.3,339.6 58.1,341.6 58.0,343.6 58.1,345.6 58.4,347.5 58.8,349.3 59.4,351.0 60.2,352.5 61.2,353.8 62.4,354.8 62.4,354.8 62.6,353.3 62.8,351.8 62.9,350.4 63.1,348.9 63.3,347.4 63.6,345.8 64.0,344.2 64.4,342.6 64.8,340.9 65.3,339.3 65.8,337.7 66.3,336.0 66.9,334.4 67.5,332.8 68.2,331.3 68.8,329.8 69.5,328.4 70.2,327.0 70.9,325.7 71.7,324.4 72.4,323.2 73.1,321.8" fill="#2FBF94"/><polygon points="7,0 -5,5 -5,-5" fill="#2FBF94" transform="translate(62.4,354.8) rotate(-119)"/><path transform="translate(80,314) scale(1.0)" fill="#2FBF94" d="M0,-11 L3,-3 L11,0 L3,3 L0,11 L-3,3 L-11,0 L-3,-3 Z"/><line x1="157" y1="303" x2="238" y2="281" stroke="#2FBF94" stroke-width="3.5" stroke-linecap="round" opacity="0.9"/><polygon points="8,0 -6,6 -6,-6" fill="#2FBF94" transform="translate(238,281) rotate(-15)"/><g transform="translate(142,392) scale(1.1)" fill="#9B79C4"><circle cx="0" cy="-14" r="13"/><rect x="-20" y="4" width="40" height="24" rx="12"/></g><polygon points="148.9,358.2 150.5,358.1 152.0,357.6 153.5,356.8 155.0,355.8 156.4,354.6 157.8,353.3 159.0,351.7 160.1,350.1 161.1,348.3 162.0,346.4 162.7,344.4 163.3,342.4 163.7,340.4 163.9,338.4 164.0,336.4 163.9,334.4 163.6,332.5 163.2,330.7 162.6,329.0 161.8,327.5 160.8,326.2 159.6,325.2 159.6,325.2 159.4,326.7 159.2,328.2 159.1,329.6 158.9,331.1 158.7,332.6 158.4,334.2 158.0,335.8 157.6,337.4 157.2,339.1 156.7,340.7 156.2,342.3 155.7,344.0 155.1,345.6 154.5,347.2 153.8,348.7 153.2,350.2 152.5,351.6 151.8,353.0 151.1,354.3 150.3,355.6 149.6,356.8 148.9,358.2" fill="#2FBF94"/><polygon points="7,0 -5,5 -5,-5" fill="#2FBF94" transform="translate(159.6,325.2) rotate(61)"/><polygon points="149.1,321.8 147.5,321.9 146.0,322.4 144.5,323.2 143.0,324.2 141.6,325.4 140.2,326.7 139.0,328.3 137.9,329.9 136.9,331.7 136.0,333.6 135.3,335.6 134.7,337.6 134.3,339.6 134.1,341.6 134.0,343.6 134.1,345.6 134.4,347.5 134.8,349.3 135.4,351.0 136.2,352.5 137.2,353.8 138.4,354.8 138.4,354.8 138.6,353.3 138.8,351.8 138.9,350.4 139.1,348.9 139.3,347.4 139.6,345.8 140.0,344.2 140.4,342.6 140.8,340.9 141.3,339.3 141.8,337.7 142.3,336.0 142.9,334.4 143.5,332.8 144.2,331.3 144.8,329.8 145.5,328.4 146.2,327.0 146.9,325.7 147.7,324.4 148.4,323.2 149.1,321.8" fill="#2FBF94"/><polygon points="7,0 -5,5 -5,-5" fill="#2FBF94" transform="translate(138.4,354.8) rotate(-119)"/><path transform="translate(156,314) scale(1.0)" fill="#2FBF94" d="M0,-11 L3,-3 L11,0 L3,3 L0,11 L-3,3 L-11,0 L-3,-3 Z"/><line x1="233" y1="303" x2="250" y2="281" stroke="#2FBF94" stroke-width="3.5" stroke-linecap="round" opacity="0.9"/><polygon points="8,0 -6,6 -6,-6" fill="#2FBF94" transform="translate(250,281) rotate(-52)"/><g transform="translate(218,392) scale(1.1)" fill="#E0B04A"><circle cx="0" cy="-14" r="13"/><rect x="-20" y="4" width="40" height="24" rx="12"/></g><polygon points="224.9,358.2 226.5,358.1 228.0,357.6 229.5,356.8 231.0,355.8 232.4,354.6 233.8,353.3 235.0,351.7 236.1,350.1 237.1,348.3 238.0,346.4 238.7,344.4 239.3,342.4 239.7,340.4 239.9,338.4 240.0,336.4 239.9,334.4 239.6,332.5 239.2,330.7 238.6,329.0 237.8,327.5 236.8,326.2 235.6,325.2 235.6,325.2 235.4,326.7 235.2,328.2 235.1,329.6 234.9,331.1 234.7,332.6 234.4,334.2 234.0,335.8 233.6,337.4 233.2,339.1 232.7,340.7 232.2,342.3 231.7,344.0 231.1,345.6 230.5,347.2 229.8,348.7 229.2,350.2 228.5,351.6 227.8,353.0 227.1,354.3 226.3,355.6 225.6,356.8 224.9,358.2" fill="#2FBF94"/><polygon points="7,0 -5,5 -5,-5" fill="#2FBF94" transform="translate(235.6,325.2) rotate(61)"/><polygon points="225.1,321.8 223.5,321.9 222.0,322.4 220.5,323.2 219.0,324.2 217.6,325.4 216.2,326.7 215.0,328.3 213.9,329.9 212.9,331.7 212.0,333.6 211.3,335.6 210.7,337.6 210.3,339.6 210.1,341.6 210.0,343.6 210.1,345.6 210.4,347.5 210.8,349.3 211.4,351.0 212.2,352.5 213.2,353.8 214.4,354.8 214.4,354.8 214.6,353.3 214.8,351.8 214.9,350.4 215.1,348.9 215.3,347.4 215.6,345.8 216.0,344.2 216.4,342.6 216.8,340.9 217.3,339.3 217.8,337.7 218.3,336.0 218.9,334.4 219.5,332.8 220.2,331.3 220.8,329.8 221.5,328.4 222.2,327.0 222.9,325.7 223.7,324.4 224.4,323.2 225.1,321.8" fill="#2FBF94"/><polygon points="7,0 -5,5 -5,-5" fill="#2FBF94" transform="translate(214.4,354.8) rotate(-119)"/><path transform="translate(232,314) scale(1.0)" fill="#2FBF94" d="M0,-11 L3,-3 L11,0 L3,3 L0,11 L-3,3 L-11,0 L-3,-3 Z"/><line x1="309" y1="303" x2="262" y2="281" stroke="#2FBF94" stroke-width="3.5" stroke-linecap="round" opacity="0.9"/><polygon points="8,0 -6,6 -6,-6" fill="#2FBF94" transform="translate(262,281) rotate(-155)"/><g transform="translate(294,392) scale(1.1)" fill="#D66A85"><circle cx="0" cy="-14" r="13"/><rect x="-20" y="4" width="40" height="24" rx="12"/></g><polygon points="300.9,358.2 302.5,358.1 304.0,357.6 305.5,356.8 307.0,355.8 308.4,354.6 309.8,353.3 311.0,351.7 312.1,350.1 313.1,348.3 314.0,346.4 314.7,344.4 315.3,342.4 315.7,340.4 315.9,338.4 316.0,336.4 315.9,334.4 315.6,332.5 315.2,330.7 314.6,329.0 313.8,327.5 312.8,326.2 311.6,325.2 311.6,325.2 311.4,326.7 311.2,328.2 311.1,329.6 310.9,331.1 310.7,332.6 310.4,334.2 310.0,335.8 309.6,337.4 309.2,339.1 308.7,340.7 308.2,342.3 307.7,344.0 307.1,345.6 306.5,347.2 305.8,348.7 305.2,350.2 304.5,351.6 303.8,353.0 303.1,354.3 302.3,355.6 301.6,356.8 300.9,358.2" fill="#2FBF94"/><polygon points="7,0 -5,5 -5,-5" fill="#2FBF94" transform="translate(311.6,325.2) rotate(61)"/><polygon points="301.1,321.8 299.5,321.9 298.0,322.4 296.5,323.2 295.0,324.2 293.6,325.4 292.2,326.7 291.0,328.3 289.9,329.9 288.9,331.7 288.0,333.6 287.3,335.6 286.7,337.6 286.3,339.6 286.1,341.6 286.0,343.6 286.1,345.6 286.4,347.5 286.8,349.3 287.4,351.0 288.2,352.5 289.2,353.8 290.4,354.8 290.4,354.8 290.6,353.3 290.8,351.8 290.9,350.4 291.1,348.9 291.3,347.4 291.6,345.8 292.0,344.2 292.4,342.6 292.8,340.9 293.3,339.3 293.8,337.7 294.3,336.0 294.9,334.4 295.5,332.8 296.2,331.3 296.8,329.8 297.5,328.4 298.2,327.0 298.9,325.7 299.7,324.4 300.4,323.2 301.1,321.8" fill="#2FBF94"/><polygon points="7,0 -5,5 -5,-5" fill="#2FBF94" transform="translate(290.4,354.8) rotate(-119)"/><path transform="translate(308,314) scale(1.0)" fill="#2FBF94" d="M0,-11 L3,-3 L11,0 L3,3 L0,11 L-3,3 L-11,0 L-3,-3 Z"/><line x1="385" y1="303" x2="274" y2="281" stroke="#2FBF94" stroke-width="3.5" stroke-linecap="round" opacity="0.9"/><polygon points="8,0 -6,6 -6,-6" fill="#2FBF94" transform="translate(274,281) rotate(-169)"/><g transform="translate(370,392) scale(1.1)" fill="#6FA3C7"><circle cx="0" cy="-14" r="13"/><rect x="-20" y="4" width="40" height="24" rx="12"/></g><polygon points="376.9,358.2 378.5,358.1 380.0,357.6 381.5,356.8 383.0,355.8 384.4,354.6 385.8,353.3 387.0,351.7 388.1,350.1 389.1,348.3 390.0,346.4 390.7,344.4 391.3,342.4 391.7,340.4 391.9,338.4 392.0,336.4 391.9,334.4 391.6,332.5 391.2,330.7 390.6,329.0 389.8,327.5 388.8,326.2 387.6,325.2 387.6,325.2 387.4,326.7 387.2,328.2 387.1,329.6 386.9,331.1 386.7,332.6 386.4,334.2 386.0,335.8 385.6,337.4 385.2,339.1 384.7,340.7 384.2,342.3 383.7,344.0 383.1,345.6 382.5,347.2 381.8,348.7 381.2,350.2 380.5,351.6 379.8,353.0 379.1,354.3 378.3,355.6 377.6,356.8 376.9,358.2" fill="#2FBF94"/><polygon points="7,0 -5,5 -5,-5" fill="#2FBF94" transform="translate(387.6,325.2) rotate(61)"/><polygon points="377.1,321.8 375.5,321.9 374.0,322.4 372.5,323.2 371.0,324.2 369.6,325.4 368.2,326.7 367.0,328.3 365.9,329.9 364.9,331.7 364.0,333.6 363.3,335.6 362.7,337.6 362.3,339.6 362.1,341.6 362.0,343.6 362.1,345.6 362.4,347.5 362.8,349.3 363.4,351.0 364.2,352.5 365.2,353.8 366.4,354.8 366.4,354.8 366.6,353.3 366.8,351.8 366.9,350.4 367.1,348.9 367.3,347.4 367.6,345.8 368.0,344.2 368.4,342.6 368.8,340.9 369.3,339.3 369.8,337.7 370.3,336.0 370.9,334.4 371.5,332.8 372.2,331.3 372.8,329.8 373.5,328.4 374.2,327.0 374.9,325.7 375.7,324.4 376.4,323.2 377.1,321.8" fill="#2FBF94"/><polygon points="7,0 -5,5 -5,-5" fill="#2FBF94" transform="translate(366.4,354.8) rotate(-119)"/><path transform="translate(384,314) scale(1.0)" fill="#2FBF94" d="M0,-11 L3,-3 L11,0 L3,3 L0,11 L-3,3 L-11,0 L-3,-3 Z"/><line x1="461" y1="303" x2="286" y2="281" stroke="#6E7787" stroke-width="3" stroke-linecap="round" stroke-dasharray="1 9"/><g transform="translate(446,392) scale(1.1)" fill="none" stroke="#6E7787" stroke-width="3" stroke-dasharray="4 4"><circle cx="0" cy="-14" r="13"/><rect x="-20" y="4" width="40" height="24" rx="12"/></g><polygon points="452.9,358.2 454.5,358.1 456.0,357.6 457.5,356.8 459.0,355.8 460.4,354.6 461.8,353.3 463.0,351.7 464.1,350.1 465.1,348.3 466.0,346.4 466.7,344.4 467.3,342.4 467.7,340.4 467.9,338.4 468.0,336.4 467.9,334.4 467.6,332.5 467.2,330.7 466.6,329.0 465.8,327.5 464.8,326.2 463.6,325.2 463.6,325.2 463.4,326.7 463.2,328.2 463.1,329.6 462.9,331.1 462.7,332.6 462.4,334.2 462.0,335.8 461.6,337.4 461.2,339.1 460.7,340.7 460.2,342.3 459.7,344.0 459.1,345.6 458.5,347.2 457.8,348.7 457.2,350.2 456.5,351.6 455.8,353.0 455.1,354.3 454.3,355.6 453.6,356.8 452.9,358.2" fill="#6E7787" opacity="0.55"/><polygon points="7,0 -5,5 -5,-5" fill="#6E7787" opacity="0.55" transform="translate(463.6,325.2) rotate(61)"/><polygon points="453.1,321.8 451.5,321.9 450.0,322.4 448.5,323.2 447.0,324.2 445.6,325.4 444.2,326.7 443.0,328.3 441.9,329.9 440.9,331.7 440.0,333.6 439.3,335.6 438.7,337.6 438.3,339.6 438.1,341.6 438.0,343.6 438.1,345.6 438.4,347.5 438.8,349.3 439.4,351.0 440.2,352.5 441.2,353.8 442.4,354.8 442.4,354.8 442.6,353.3 442.8,351.8 442.9,350.4 443.1,348.9 443.3,347.4 443.6,345.8 444.0,344.2 444.4,342.6 444.8,340.9 445.3,339.3 445.8,337.7 446.3,336.0 446.9,334.4 447.5,332.8 448.2,331.3 448.8,329.8 449.5,328.4 450.2,327.0 450.9,325.7 451.7,324.4 452.4,323.2 453.1,321.8" fill="#6E7787" opacity="0.55"/><polygon points="7,0 -5,5 -5,-5" fill="#6E7787" opacity="0.55" transform="translate(442.4,354.8) rotate(-119)"/><text x="454" y="318" font-family="'Helvetica Neue', Helvetica, Arial, sans-serif" font-weight="700" font-size="24" fill="#6E7787">+</text><polyline points="98,396 110,404 98,412" fill="none" stroke="#2FBF94" stroke-width="4" stroke-linecap="round" stroke-linejoin="round" opacity="0.8"/><polyline points="174,396 186,404 174,412" fill="none" stroke="#2FBF94" stroke-width="4" stroke-linecap="round" stroke-linejoin="round" opacity="0.8"/><polyline points="250,396 262,404 250,412" fill="none" stroke="#2FBF94" stroke-width="4" stroke-linecap="round" stroke-linejoin="round" opacity="0.8"/><polyline points="326,396 338,404 326,412" fill="none" stroke="#2FBF94" stroke-width="4" stroke-linecap="round" stroke-linejoin="round" opacity="0.8"/><polyline points="402,396 414,404 402,412" fill="none" stroke="#6E7787" stroke-width="4" stroke-linecap="round" stroke-linejoin="round" stroke-dasharray="3 5" opacity="0.8"/><line x1="40" y1="424" x2="472" y2="424" stroke="#F5F2EA" stroke-width="3" stroke-linecap="round" opacity="0.35"/><text x="256" y="486" text-anchor="middle" font-family="'Helvetica Neue', Helvetica, Arial, sans-serif" font-weight="800" font-size="52" letter-spacing="6" fill="#F5F2EA">HITL</text></svg>