<svg xmlns="http://www.w3.org/2000/svg" viewBox="0 0 780 1246" width="780" height="1246" font-family="'Menlo','Monaco','Consolas','Courier New',monospace">

  <!-- Background -->
  <rect width="780" height="1246" rx="10" fill="#1e1e2e"/>

  <!-- Title bar -->
  <rect width="780" height="38" rx="10" fill="#313244"/>
  <rect y="28" width="780" height="10" fill="#313244"/>
  <circle cx="20" cy="19" r="6" fill="#f38ba8"/>
  <circle cx="40" cy="19" r="6" fill="#f9e2af"/>
  <circle cx="60" cy="19" r="6" fill="#a6e3a1"/>
  <text x="390" y="24" text-anchor="middle" fill="#cdd6f4" font-size="13" opacity="0.7">Claude Code — your-project</text>

  <!-- Status bar -->
  <rect x="16" y="52" width="748" height="28" rx="4" fill="#1e3a1e" stroke="#a6e3a1" stroke-width="1" opacity="0.9"/>
  <text x="28" y="70" fill="#a6e3a1" font-size="12">✓</text>
  <text x="44" y="70" fill="#a6e3a1" font-size="12">CLAUDE.md loaded — 25 commands across 5 namespaces · architect · developer · pm · qa · ops</text>

  <!-- Version line -->
  <text x="28" y="104" fill="#6c7086" font-size="12">Claude Code v1.x  |  Model: claude-sonnet-4-6  |  Context: your-project/</text>

  <!-- Prompt box -->
  <text x="28" y="132" fill="#89b4fa" font-size="13">╭─────────────────────────────────────────╮</text>
  <text x="28" y="150" fill="#89b4fa" font-size="13">│  How can I help with your-project today? │</text>
  <text x="28" y="168" fill="#89b4fa" font-size="13">╰─────────────────────────────────────────╯</text>

  <!-- Command input -->
  <text x="28" y="200" fill="#cdd6f4" font-size="13">&gt; /</text>
  <rect x="46" y="187" width="2" height="16" fill="#cdd6f4" opacity="0.8"/>

  <!-- Dropdown outer -->
  <rect x="16" y="212" width="748" height="984" rx="6" fill="#181825" stroke="#45475a" stroke-width="1"/>
  <rect x="16" y="212" width="748" height="28" rx="6" fill="#313244"/>
  <rect x="16" y="228" width="748" height="12" fill="#313244"/>
  <text x="28" y="230" fill="#6c7086" font-size="11">ALL COMMANDS  (30)  —  type /namespace: to filter  —  ↑↓ navigate   ↵ select</text>

  <!-- ══ ARCHITECT (4) ══════════════════════════════════════════════════════ -->
  <rect x="17" y="240" width="746" height="20" fill="#1a2744"/>
  <text x="28" y="254" fill="#89b4fa" font-size="10" font-weight="bold" letter-spacing="1">ARCHITECT</text>
  <text x="692" y="254" fill="#45475a" font-size="10">4 commands</text>

  <rect x="17" y="260" width="746" height="28" fill="#313244"/>
  <text x="28" y="278" fill="#cba6f7" font-size="12" font-weight="bold">/architect:design-system</text>
  <text x="262" y="278" fill="#6c7086" font-size="11">  ·</text>
  <text x="275" y="278" fill="#a6adc8" font-size="11">Design new system from PRD — domains, manifest, HLDs, ADRs, LLDs</text>

  <rect x="17" y="288" width="746" height="28" fill="transparent"/>
  <text x="28" y="306" fill="#cba6f7" font-size="12">/architect:design-feature</text>
  <text x="262" y="306" fill="#6c7086" font-size="11">  ·</text>
  <text x="275" y="306" fill="#a6adc8" font-size="11">Steps 3–9: impact analysis, HLD, LLD, slice decomp, decision packets</text>

  <rect x="17" y="316" width="746" height="28" fill="transparent"/>
  <text x="28" y="334" fill="#cba6f7" font-size="12">/architect:review-design</text>
  <text x="262" y="334" fill="#6c7086" font-size="11">  ·</text>
  <text x="275" y="334" fill="#a6adc8" font-size="11">Review HLD, LLD, ADR — approve design before implementation starts</text>

  <rect x="17" y="344" width="746" height="28" fill="transparent"/>
  <text x="28" y="362" fill="#cba6f7" font-size="12">/architect:verify-traceability</text>
  <text x="262" y="362" fill="#6c7086" font-size="11">  ·</text>
  <text x="275" y="362" fill="#a6adc8" font-size="11">Integration verify — issue → design → code → tests → brief chain</text>

  <!-- ══ DEVELOPER (8) ══════════════════════════════════════════════════════ -->
  <rect x="17" y="376" width="746" height="20" fill="#1a2e1a"/>
  <text x="28" y="390" fill="#a6e3a1" font-size="10" font-weight="bold" letter-spacing="1">DEVELOPER</text>
  <text x="692" y="390" fill="#45475a" font-size="10">8 commands</text>

  <rect x="17" y="396" width="746" height="28" fill="transparent"/>
  <text x="28" y="414" fill="#cba6f7" font-size="12">/dev-practices</text>
  <text x="262" y="414" fill="#6c7086" font-size="11">  ·</text>
  <text x="275" y="414" fill="#a6adc8" font-size="11">Full HITL workflow — tiers, TDD loop, review gates, ship</text>

  <rect x="17" y="424" width="746" height="28" fill="transparent"/>
  <text x="28" y="442" fill="#cba6f7" font-size="12">/generate-docs</text>
  <text x="262" y="442" fill="#6c7086" font-size="11">  ·</text>
  <text x="275" y="442" fill="#a6adc8" font-size="11">Generate HLD, LLD, ADR from feature description or existing code</text>

  <rect x="17" y="452" width="746" height="28" fill="transparent"/>
  <text x="28" y="470" fill="#cba6f7" font-size="12">/tdd</text>
  <text x="262" y="470" fill="#6c7086" font-size="11">  ·</text>
  <text x="275" y="470" fill="#a6adc8" font-size="11">TDD loop — tests first (RED) → review → code (GREEN) → refactor</text>

  <rect x="17" y="480" width="746" height="28" fill="transparent"/>
  <text x="28" y="498" fill="#cba6f7" font-size="12">/apply-change</text>
  <text x="262" y="498" fill="#6c7086" font-size="11">  ·</text>
  <text x="275" y="498" fill="#a6adc8" font-size="11">Impact analysis — affected components, APIs, docs, tests</text>

  <rect x="17" y="508" width="746" height="28" fill="transparent"/>
  <text x="28" y="526" fill="#cba6f7" font-size="12">/check-conventions</text>
  <text x="262" y="526" fill="#6c7086" font-size="11">  ·</text>
  <text x="275" y="526" fill="#a6adc8" font-size="11">Run semgrep, manifest drift, and convention checks in-chat</text>

  <rect x="17" y="536" width="746" height="28" fill="transparent"/>
  <text x="28" y="554" fill="#cba6f7" font-size="12">/check-implementation</text>
  <text x="262" y="554" fill="#6c7086" font-size="11">  ·</text>
  <text x="275" y="554" fill="#a6adc8" font-size="11">Spec conformance review — implementation vs LLD, two rounds</text>

  <rect x="17" y="564" width="746" height="28" fill="transparent"/>
  <text x="28" y="582" fill="#cba6f7" font-size="12">/impact-brief</text>
  <text x="262" y="582" fill="#6c7086" font-size="11">  ·</text>
  <text x="275" y="582" fill="#a6adc8" font-size="11">Downstream impact brief and rollout plan for a PR</text>

  <rect x="17" y="592" width="746" height="28" fill="transparent"/>
  <text x="28" y="610" fill="#cba6f7" font-size="12">/conclude</text>
  <text x="262" y="610" fill="#6c7086" font-size="11">  ·</text>
  <text x="275" y="610" fill="#a6adc8" font-size="11">Turn a Slack design thread into ADR, issue, HLD/LLD updates</text>

  <!-- ══ PM (9) ══════════════════════════════════════════════════════════════ -->
  <rect x="17" y="624" width="746" height="20" fill="#2a1e3a"/>
  <text x="28" y="638" fill="#cba6f7" font-size="10" font-weight="bold" letter-spacing="1">PM</text>
  <text x="692" y="638" fill="#45475a" font-size="10">9 commands</text>

  <rect x="17" y="644" width="746" height="28" fill="transparent"/>
  <text x="28" y="662" fill="#cba6f7" font-size="12">/pm:add-feature</text>
  <text x="262" y="662" fill="#6c7086" font-size="11">  ·</text>
  <text x="275" y="662" fill="#a6adc8" font-size="11">Add a new feature to the PRD with acceptance criteria</text>

  <rect x="17" y="672" width="746" height="28" fill="transparent"/>
  <text x="28" y="690" fill="#cba6f7" font-size="12">/pm:design-feature</text>
  <text x="262" y="690" fill="#6c7086" font-size="11">  ·</text>
  <text x="275" y="690" fill="#a6adc8" font-size="11">Design a feature from a rough idea into structured requirements</text>

  <rect x="17" y="700" width="746" height="28" fill="transparent"/>
  <text x="28" y="718" fill="#cba6f7" font-size="12">/pm:update-requirement</text>
  <text x="262" y="718" fill="#6c7086" font-size="11">  ·</text>
  <text x="275" y="718" fill="#a6adc8" font-size="11">Update an existing PRD requirement with new criteria or scope</text>

  <rect x="17" y="728" width="746" height="28" fill="transparent"/>
  <text x="28" y="746" fill="#cba6f7" font-size="12">/pm:review-scope-change</text>
  <text x="262" y="746" fill="#6c7086" font-size="11">  ·</text>
  <text x="275" y="746" fill="#a6adc8" font-size="11">Analyze a requested scope change and its downstream impact</text>

  <rect x="17" y="756" width="746" height="28" fill="transparent"/>
  <text x="28" y="774" fill="#cba6f7" font-size="12">/pm:prioritize</text>
  <text x="262" y="774" fill="#6c7086" font-size="11">  ·</text>
  <text x="275" y="774" fill="#a6adc8" font-size="11">Prioritize features using value, effort, risk, and alignment</text>

  <rect x="17" y="784" width="746" height="28" fill="transparent"/>
  <text x="28" y="802" fill="#cba6f7" font-size="12">/pm:review-progress</text>
  <text x="262" y="802" fill="#6c7086" font-size="11">  ·</text>
  <text x="275" y="802" fill="#a6adc8" font-size="11">Review sprint or milestone progress against PRD goals</text>

  <rect x="17" y="812" width="746" height="28" fill="transparent"/>
  <text x="28" y="830" fill="#cba6f7" font-size="12">/pm:report-bug</text>
  <text x="262" y="830" fill="#6c7086" font-size="11">  ·</text>
  <text x="275" y="830" fill="#a6adc8" font-size="11">Document a bug report as a structured GitHub issue</text>

  <rect x="17" y="840" width="746" height="28" fill="transparent"/>
  <text x="28" y="858" fill="#cba6f7" font-size="12">/pm:prep-demo</text>
  <text x="262" y="858" fill="#6c7086" font-size="11">  ·</text>
  <text x="275" y="858" fill="#a6adc8" font-size="11">Prepare a demo script or talking points for a feature</text>

  <rect x="17" y="868" width="746" height="28" fill="transparent"/>
  <text x="28" y="886" fill="#cba6f7" font-size="12">/pm:answer-questions</text>
  <text x="262" y="886" fill="#6c7086" font-size="11">  ·</text>
  <text x="275" y="886" fill="#a6adc8" font-size="11">Answer product or business questions using existing docs</text>

  <!-- ══ QA (4) ══════════════════════════════════════════════════════════════ -->
  <rect x="17" y="900" width="746" height="20" fill="#2e2a1a"/>
  <text x="28" y="914" fill="#f9e2af" font-size="10" font-weight="bold" letter-spacing="1">QA</text>
  <text x="692" y="914" fill="#45475a" font-size="10">4 commands</text>

  <rect x="17" y="920" width="746" height="28" fill="transparent"/>
  <text x="28" y="938" fill="#cba6f7" font-size="12">/qa:plan-tests</text>
  <text x="262" y="938" fill="#6c7086" font-size="11">  ·</text>
  <text x="275" y="938" fill="#a6adc8" font-size="11">Design time — test scenarios from incident history before TDD starts</text>

  <rect x="17" y="948" width="746" height="28" fill="transparent"/>
  <text x="28" y="966" fill="#cba6f7" font-size="12">/qa:review-tests</text>
  <text x="262" y="966" fill="#6c7086" font-size="11">  ·</text>
  <text x="275" y="966" fill="#a6adc8" font-size="11">Formal test coverage review — ACs, LLD edge cases, incident regressions</text>

  <rect x="17" y="976" width="746" height="28" fill="transparent"/>
  <text x="28" y="994" fill="#cba6f7" font-size="12">/qa:verify-quality</text>
  <text x="262" y="994" fill="#6c7086" font-size="11">  ·</text>
  <text x="275" y="994" fill="#a6adc8" font-size="11">Post-handoff independent verification — block or approve promotion</text>

  <rect x="17" y="1004" width="746" height="28" fill="transparent"/>
  <text x="28" y="1022" fill="#cba6f7" font-size="12">/qa:report-defect</text>
  <text x="262" y="1022" fill="#6c7086" font-size="11">  ·</text>
  <text x="275" y="1022" fill="#a6adc8" font-size="11">File structured defect when blocking — AC ref, repro steps, severity</text>

  <!-- ══ OPS (5) ══════════════════════════════════════════════════════════════ -->
  <rect x="17" y="1036" width="746" height="20" fill="#2e1a1a"/>
  <text x="28" y="1050" fill="#f38ba8" font-size="10" font-weight="bold" letter-spacing="1">OPS</text>
  <text x="692" y="1050" fill="#45475a" font-size="10">5 commands</text>

  <rect x="17" y="1056" width="746" height="28" fill="transparent"/>
  <text x="28" y="1074" fill="#cba6f7" font-size="12">/ops:review-release</text>
  <text x="262" y="1074" fill="#6c7086" font-size="11">  ·</text>
  <text x="275" y="1074" fill="#a6adc8" font-size="11">Assess rollout plan, canary criteria, and rollback readiness</text>

  <rect x="17" y="1084" width="746" height="28" fill="transparent"/>
  <text x="28" y="1102" fill="#cba6f7" font-size="12">/ops:apply-iac</text>
  <text x="262" y="1102" fill="#6c7086" font-size="11">  ·</text>
  <text x="275" y="1102" fill="#a6adc8" font-size="11">Review and apply IaC changes — dry-run plan, approve gate, apply, verify</text>

  <rect x="17" y="1112" width="746" height="28" fill="transparent"/>
  <text x="28" y="1130" fill="#cba6f7" font-size="12">/ops:build</text>
  <text x="262" y="1130" fill="#6c7086" font-size="11">  ·</text>
  <text x="275" y="1130" fill="#a6adc8" font-size="11">Build from branch — verify CI run, artifact integrity, smoke readiness</text>

  <rect x="17" y="1140" width="746" height="28" fill="transparent"/>
  <text x="28" y="1158" fill="#cba6f7" font-size="12">/ops:deploy</text>
  <text x="262" y="1158" fill="#6c7086" font-size="11">  ·</text>
  <text x="275" y="1158" fill="#a6adc8" font-size="11">Deploy a verified artifact to an environment per the approved rollout plan</text>

  <rect x="17" y="1168" width="746" height="28" fill="transparent"/>
  <text x="28" y="1186" fill="#cba6f7" font-size="12">/ops:monitor-canary</text>
  <text x="262" y="1186" fill="#6c7086" font-size="11">  ·</text>
  <text x="275" y="1186" fill="#a6adc8" font-size="11">Read dashboards — go/no-go recommendation per canary step</text>

  <!-- Separator + nav hint -->
  <line x1="16" y1="1198" x2="764" y2="1198" stroke="#45475a" stroke-width="1" opacity="0.5"/>
  <text x="28" y="1212" fill="#6c7086" font-size="11">↑↓ navigate   ↵ select   esc dismiss   —   type to filter by namespace</text>
  <text x="572" y="1212" fill="#45475a" font-size="11">from .claude/commands/</text>

  <!-- Footer -->
  <rect x="0" y="1224" width="780" height="18" fill="#313244" opacity="0.5"/>
  <text x="16" y="1237" fill="#6c7086" font-size="11">CLAUDE.md  ·  system-manifest.yaml  ·  30 commands  (architect: 4  developer: 8  pm: 9  qa: 4  ops: 5)</text>

</svg>
