<svg xmlns="http://www.w3.org/2000/svg" width="1600" height="1100" viewBox="0 0 1600 1100" role="img" aria-labelledby="title desc">
  <title id="title">HITL AI-Driven Development Process</title>
  <desc id="desc">Infographic explaining how humans and AI iteratively refine decisions into documents, then use those documents as shared execution context for code, tests, infrastructure, and rollout.</desc>

  <defs>
    <style>
      .bg { fill: #f7f8fa; }
      .title { font: 700 46px Arial, Helvetica, sans-serif; fill: #111827; }
      .subtitle { font: 400 23px Arial, Helvetica, sans-serif; fill: #374151; }
      .section-title { font: 700 25px Arial, Helvetica, sans-serif; fill: #111827; }
      .label { font: 700 21px Arial, Helvetica, sans-serif; fill: #111827; }
      .body { font: 400 18px Arial, Helvetica, sans-serif; fill: #374151; }
      .small { font: 400 15px Arial, Helvetica, sans-serif; fill: #4b5563; }
      .micro { font: 700 13px Arial, Helvetica, sans-serif; fill: #ffffff; }
      .card { fill: #ffffff; stroke: #cbd5e1; stroke-width: 2; rx: 8; }
      .blue { fill: #dbeafe; stroke: #2563eb; }
      .green { fill: #dcfce7; stroke: #16a34a; }
      .amber { fill: #fef3c7; stroke: #d97706; }
      .rose { fill: #ffe4e6; stroke: #e11d48; }
      .violet { fill: #ede9fe; stroke: #7c3aed; }
      .cyan { fill: #cffafe; stroke: #0891b2; }
      .dark { fill: #111827; }
      .arrow { stroke: #334155; stroke-width: 3; fill: none; marker-end: url(#arrowhead); }
      .arrow-soft { stroke: #64748b; stroke-width: 2.5; fill: none; marker-end: url(#arrowhead-soft); }
      .loop { stroke: #7c3aed; stroke-width: 4; fill: none; marker-end: url(#arrowhead-purple); }
      .dash { stroke-dasharray: 8 8; }
    </style>

    <marker id="arrowhead" markerWidth="12" markerHeight="12" refX="10" refY="6" orient="auto">
      <path d="M 0 0 L 12 6 L 0 12 z" fill="#334155"/>
    </marker>
    <marker id="arrowhead-soft" markerWidth="12" markerHeight="12" refX="10" refY="6" orient="auto">
      <path d="M 0 0 L 12 6 L 0 12 z" fill="#64748b"/>
    </marker>
    <marker id="arrowhead-purple" markerWidth="12" markerHeight="12" refX="10" refY="6" orient="auto">
      <path d="M 0 0 L 12 6 L 0 12 z" fill="#7c3aed"/>
    </marker>
  </defs>

  <rect class="bg" x="0" y="0" width="1600" height="1100"/>

  <!-- Header -->
  <text class="title" x="80" y="80">HITL AI-Driven Development</text>
  <text class="subtitle" x="80" y="122">Humans refine intent into shared documents. AI executes from those documents.</text>

  <rect class="dark" x="80" y="155" width="1440" height="78" rx="8"/>
  <text class="micro" x="110" y="185">CORE IDEA</text>
  <text class="subtitle" x="110" y="215" fill="#ffffff">AI makes code cheap. The process makes decisions durable, reviewable, and portable across people and AI harnesses.</text>

  <!-- Left: iterative design loop -->
  <rect class="card violet" x="80" y="285" width="640" height="500"/>
  <text class="section-title" x="115" y="330">1. Human-AI Design Convergence</text>
  <text class="body" x="115" y="365">The team does not accept the first AI answer.</text>
  <text class="body" x="115" y="392">AI drafts artifacts. Humans review, challenge, and revise.</text>

  <rect class="card blue" x="135" y="440" width="190" height="92"/>
  <text class="label" x="165" y="476">Human intent</text>
  <text class="small" x="165" y="506">Need, problem,</text>
  <text class="small" x="165" y="526">constraint</text>

  <rect class="card amber" x="420" y="440" width="220" height="92"/>
  <text class="label" x="454" y="476">AI drafts</text>
  <text class="small" x="454" y="506">PRD, HLD, LLD,</text>
  <text class="small" x="454" y="526">ADR, test plan</text>

  <rect class="card green" x="420" y="625" width="220" height="92"/>
  <text class="label" x="452" y="661">Human review</text>
  <text class="small" x="452" y="691">Disagree, correct,</text>
  <text class="small" x="452" y="711">approve</text>

  <rect class="card cyan" x="135" y="625" width="190" height="92"/>
  <text class="label" x="166" y="661">Final artifact</text>
  <text class="small" x="166" y="691">Reviewed spec</text>
  <text class="small" x="166" y="711">ready to execute</text>

  <path class="loop" d="M 330 486 C 360 486 382 486 410 486"/>
  <path class="loop" d="M 530 540 C 530 570 530 590 530 615"/>
  <path class="loop" d="M 410 670 C 375 670 360 670 335 670"/>
  <path class="loop" d="M 230 620 C 230 580 230 555 230 542"/>

  <text class="small" x="196" y="762">Repeat until the artifact accurately expresses the team's intent.</text>

  <!-- Center: source of truth -->
  <rect class="card green" x="780" y="285" width="340" height="500"/>
  <text class="section-title" x="815" y="330">2. Shared Team Memory</text>
  <text class="body" x="815" y="365">Decisions move out of private</text>
  <text class="body" x="815" y="392">AI chats and into Git.</text>

  <rect class="card" x="825" y="435" width="250" height="280"/>
  <text class="label" x="866" y="470">Versioned docs</text>
  <line x1="855" y1="495" x2="1045" y2="495" stroke="#cbd5e1" stroke-width="2"/>
  <text class="small" x="860" y="526">Issues and PRDs</text>
  <text class="small" x="860" y="555">HLDs and LLDs</text>
  <text class="small" x="860" y="584">ADRs</text>
  <text class="small" x="860" y="613">System manifest</text>
  <text class="small" x="860" y="642">Test registry</text>
  <text class="small" x="860" y="671">Incident registry</text>
  <text class="small" x="860" y="700">Decision packets</text>

  <text class="small" x="823" y="762">Private AI context does not scale.</text>
  <text class="small" x="823" y="785">Version-controlled decisions do.</text>

  <!-- Right: execution -->
  <rect class="card blue" x="1180" y="285" width="340" height="500"/>
  <text class="section-title" x="1215" y="330">3. AI Executes From Docs</text>
  <text class="body" x="1215" y="365">The approved artifacts become</text>
  <text class="body" x="1215" y="392">the execution context.</text>

  <rect class="card" x="1225" y="435" width="250" height="58"/>
  <text class="label" x="1262" y="472">Code generation</text>

  <rect class="card" x="1225" y="520" width="250" height="58"/>
  <text class="label" x="1280" y="557">Tests first</text>

  <rect class="card" x="1225" y="605" width="250" height="58"/>
  <text class="label" x="1280" y="642">IaC changes</text>

  <rect class="card" x="1225" y="690" width="250" height="58"/>
  <text class="label" x="1267" y="727">Rollout plan</text>

  <path class="arrow" d="M 720 535 C 745 535 755 535 775 535"/>
  <path class="arrow" d="M 1120 535 C 1145 535 1155 535 1175 535"/>

  <!-- Lower band: multiple harnesses -->
  <rect class="card" x="80" y="840" width="1440" height="185"/>
  <text class="section-title" x="115" y="885">Why this matters for teams using multiple AI harnesses</text>

  <rect class="card amber" x="125" y="925" width="235" height="65"/>
  <text class="label" x="162" y="965">Dev 1 + Claude</text>

  <rect class="card cyan" x="410" y="925" width="235" height="65"/>
  <text class="label" x="459" y="965">Dev 2 + Cursor</text>

  <rect class="card violet" x="695" y="925" width="235" height="65"/>
  <text class="label" x="733" y="965">Dev 3 + Windsurf</text>

  <rect class="card green" x="980" y="925" width="235" height="65"/>
  <text class="label" x="1036" y="965">QA + AI tool</text>

  <rect class="card rose" x="1265" y="925" width="210" height="65"/>
  <text class="label" x="1307" y="965">Ops + AI tool</text>

  <path class="arrow-soft dash" d="M 242 925 C 242 850 950 850 950 725"/>
  <path class="arrow-soft dash" d="M 527 925 C 527 860 950 850 950 725"/>
  <path class="arrow-soft dash" d="M 812 925 C 812 875 950 850 950 725"/>
  <path class="arrow-soft dash" d="M 1097 925 C 1097 875 950 850 950 725"/>
  <path class="arrow-soft dash" d="M 1370 925 C 1370 850 950 850 950 725"/>

  <text class="body" x="115" y="1012">Each person can use their own AI tool, but all tools reload the same agreements, standards, boundaries, tests, and decisions from Git.</text>
  <text class="body" x="115" y="1042">That keeps one product coherent even when many AI sessions are producing artifacts.</text>

  <!-- Footer -->
  <text class="small" x="80" y="1075">Human decisions become shared execution context. AI produces fast; humans steer by reviewing durable artifacts.</text>
</svg>
